<svg width="33" height="34" viewBox="0 0 33 34" fill="none" xmlns="http://www.w3.org/2000/svg">
<g clip-path="url(#clip0_69_14)">
<path d="M29.6149 18.6589L30.6548 18.1262C31.0798 19.1309 31.5165 20.0846 31.8886 21.0736C32.5512 22.741 32.894 24.5182 32.8992 26.3123C32.8815 27.7968 32.5741 29.2206 31.6928 30.4602C30.457 32.2032 28.6866 32.9474 26.6225 33.0747C24.0668 33.2333 21.6873 32.5224 19.3862 31.508C18.6244 31.1692 17.8841 30.7775 17.1497 30.3799C17.0514 30.3117 16.9345 30.2751 16.8148 30.2751C16.6951 30.2751 16.5783 30.3117 16.4799 30.3799C14.4334 31.5295 12.2792 32.4441 9.92908 32.8788C8.29186 33.1844 6.65463 33.2333 5.04483 32.7202C2.58312 31.9369 1.02228 29.8864 0.769641 27.2249C0.548342 24.9003 1.08299 22.7206 1.90747 20.5664C2.22669 19.7615 2.60662 18.9762 2.97676 18.1262L4.001 18.6452C3.68766 19.3581 3.37431 20.0298 3.0923 20.7133C2.40182 22.3145 1.99431 24.0234 1.88789 25.764C1.80033 26.8897 1.99135 28.0197 2.44407 29.0541C3.29794 30.8852 4.83724 31.7058 6.76822 31.9055C8.7795 32.1131 10.685 31.6411 12.5455 30.9263C13.4934 30.564 14.3981 30.094 15.3225 29.669C15.4146 29.6259 15.4968 29.5652 15.6398 29.4732C13.0522 27.7847 10.6749 25.794 8.5582 23.5432L9.36702 22.7363C11.5674 25.0856 14.0699 27.1324 16.8089 28.823C19.6476 27.0688 22.2315 24.9324 24.4878 22.4739L25.3358 23.2396C23.1402 25.6317 20.6517 27.7373 17.9291 29.5065C18.7125 29.8747 19.3842 30.2233 20.0834 30.5288C21.8459 31.3121 23.6829 31.8585 25.6276 31.9427C26.8869 31.9956 28.1089 31.8213 29.2213 31.1887C30.7547 30.3153 31.4656 28.915 31.6654 27.2152C31.9337 24.9415 31.352 22.8107 30.5295 20.7289C30.2573 20.0415 29.9322 19.3737 29.6149 18.6589Z" fill="#5F603A"/>
<path d="M1.78809 13.2302C1.53742 12.3391 1.26128 11.499 1.06544 10.6412C0.673764 8.95697 0.569969 7.26296 1.00865 5.56307C1.2979 4.37303 1.94368 3.2997 2.85959 2.48669C3.77549 1.67368 4.91784 1.15977 6.13378 1.0137C8.43686 0.696441 10.6401 1.11554 12.7688 1.93611C14.0673 2.4355 15.3148 3.08569 16.5623 3.69867C16.645 3.74413 16.7389 3.7653 16.8331 3.75976C16.9274 3.75421 17.0181 3.72218 17.0949 3.66733C19.1552 2.50992 21.3055 1.57772 23.638 1.14296C25.7295 0.751277 27.8035 0.716026 29.7423 1.77944C31.6517 2.82914 32.5506 4.54274 32.8209 6.64019C33.0363 8.31462 32.7622 9.94009 32.3196 11.5969L31.2503 11.2992C31.3795 10.6392 31.5244 10.0067 31.6224 9.36824C31.8417 7.94252 31.8182 6.53052 31.2757 5.16747C30.5903 3.46758 29.284 2.53342 27.5254 2.1907C25.4984 1.79902 23.542 2.1907 21.6502 2.87027C20.4869 3.28349 19.3784 3.84947 18.2465 4.35277C18.151 4.40387 18.0588 4.46077 17.9704 4.52316C20.2206 5.97431 22.3085 7.663 24.1981 9.56016L23.4147 10.3592C22.8272 9.8265 22.3023 9.2664 21.6972 8.79247C20.2127 7.64289 18.695 6.53443 17.2007 5.3966C16.9167 5.17922 16.7033 5.20076 16.4173 5.3966C13.9371 6.98164 11.6568 8.85955 9.62561 10.9898C9.55116 11.0798 9.48185 11.174 9.41802 11.2718L8.54262 10.463C10.6652 8.19184 13.0602 6.19154 15.6732 4.50749C15.2051 4.26856 14.8095 4.05706 14.4041 3.86122C12.4379 2.91531 10.3992 2.21028 8.20381 2.06732C6.68409 1.96548 5.22509 2.17699 3.95017 3.08569C2.7105 3.97089 2.14256 5.23993 1.94672 6.71069C1.70388 8.59467 2.09556 10.3944 2.68308 12.1707C2.74575 12.3665 2.81821 12.5624 2.90047 12.7935L1.78809 13.2302Z" fill="#5F603A"/>
<path d="M28.0482 14.3367C28.0444 14.0623 28.096 13.79 28.2 13.5361C28.304 13.2821 28.4582 13.0518 28.6533 12.8589C28.8484 12.666 29.0804 12.5144 29.3355 12.4133C29.5906 12.3122 29.8635 12.2637 30.1378 12.2705C31.3481 12.2705 32.2685 13.1518 32.2626 14.3053C32.2591 14.5807 32.201 14.8527 32.0918 15.1056C31.9825 15.3584 31.8243 15.5871 31.6262 15.7785C31.4281 15.9699 31.1941 16.1201 30.9376 16.2205C30.6811 16.3209 30.4073 16.3696 30.1319 16.3636C28.9392 16.3636 28.0521 15.496 28.0482 14.3367ZM29.141 14.3014C29.13 14.4375 29.147 14.5744 29.191 14.7037C29.235 14.833 29.3051 14.9519 29.3968 15.053C29.4886 15.1541 29.6002 15.2354 29.7246 15.2917C29.849 15.348 29.9836 15.3782 30.1202 15.3805C30.7077 15.3922 31.1248 14.9653 31.1326 14.3386C31.1405 13.7119 30.7312 13.2302 30.1417 13.2302C30.0052 13.2334 29.8708 13.2639 29.7462 13.3197C29.6216 13.3756 29.5095 13.4558 29.4163 13.5555C29.3231 13.6553 29.2507 13.7726 29.2034 13.9007C29.1562 14.0288 29.1349 14.165 29.141 14.3014Z" fill="#5F603A"/>
<path d="M7.47792 21.2708L7.81845 20.1398C8.12249 20.3222 8.86435 20.6263 9.61837 20.6263C10.7616 20.6263 11.2237 19.9817 11.2116 19.3614C11.2116 18.425 10.3359 18.0237 9.42379 18.0237H8.73057V16.9291H9.39946C10.0927 16.9291 10.9683 16.6129 10.9683 15.8224C10.9683 15.2873 10.567 14.8373 9.70351 14.8373C9.05894 14.8373 8.41437 15.117 8.086 15.3359L7.74548 14.2535C8.19546 13.9373 9.0711 13.6455 10.0197 13.6455C11.6494 13.6455 12.4885 14.5454 12.4885 15.5792C12.4885 16.4062 12.0021 17.0872 11.0291 17.4277V17.4521C11.9899 17.6223 12.7682 18.352 12.7682 19.4223C12.7682 20.76 11.6494 21.8181 9.69134 21.8181C8.73057 21.8181 7.90358 21.5505 7.47792 21.2708ZM18.8385 13.6698L18.8507 14.8373C18.6318 14.8373 18.3885 14.8373 18.0845 14.8738C16.4305 15.0684 15.6279 16.09 15.4333 17.1845H15.4698C15.8589 16.7345 16.4548 16.4183 17.2454 16.4183C18.6075 16.4183 19.6655 17.3913 19.6655 18.9966C19.6655 20.5046 18.5588 21.8181 16.8805 21.8181C14.959 21.8181 13.9009 20.3587 13.9009 18.4128C13.9009 16.8926 14.4482 15.6521 15.2752 14.8616C16.0049 14.1806 16.9535 13.7914 18.0845 13.6941C18.4129 13.6576 18.6561 13.6576 18.8385 13.6698ZM16.8683 20.6992C17.6467 20.6992 18.1453 20.0303 18.1453 19.0817C18.1453 18.1696 17.6467 17.5129 16.771 17.5129C16.2116 17.5129 15.713 17.8534 15.4819 18.3277C15.4211 18.4493 15.3846 18.5953 15.3846 18.802C15.4089 19.8479 15.9076 20.6992 16.8683 20.6992ZM23.34 13.6455C25.2493 13.6455 26.1371 15.3481 26.1371 17.6831C26.1371 20.2249 25.1399 21.8181 23.2548 21.8181C21.4306 21.8181 20.4576 20.1641 20.4455 17.7561C20.4455 15.2995 21.4914 13.6455 23.34 13.6455ZM23.3035 14.7887C22.5008 14.7887 21.9414 15.7738 21.9535 17.7561C21.9414 19.6777 22.4765 20.6749 23.3035 20.6749C24.1791 20.6749 24.6413 19.6047 24.6413 17.7075C24.6413 15.8711 24.2034 14.7887 23.3035 14.7887Z" fill="#5F603A"/>
</g>
<defs>
<clipPath id="clip0_69_14">
<rect width="32.1746" height="32.2157" fill="white" transform="translate(0.724609 0.892212)"/>
</clipPath>
</defs>
</svg>
