<svg width="212" height="93" viewBox="0 0 212 93" fill="none" xmlns="http://www.w3.org/2000/svg">
<g clip-path="url(#clip0_4_18)">
<path fillRule="evenodd" clipRule="evenodd" d="M0 55.9347H11.3309C13.9177 55.9347 17.559 57.6657 17.7841 60.2392C18.003 62.6713 14.5806 64.925 12.1356 64.925H5.83039C5.04109 64.8974 4.41519 64.3439 4.41519 63.6675C4.41519 62.9911 5.075 62.4161 5.88897 62.4161C6.70295 62.4161 7.35659 62.9788 7.35659 63.6736C7.35782 63.7777 7.34327 63.8814 7.31343 63.9811H10.9085C12.7399 63.9811 15.2096 62.3731 15.1911 60.5498C15.1695 58.665 12.7245 56.9309 10.8345 56.9309H2.46659V70.8131H0V55.9347ZM209.515 56.2421C210.616 56.5496 211.402 57.1276 211.402 57.9332C211.366 58.3433 211.178 58.7252 210.873 59.0035C210.569 59.2817 210.171 59.4361 209.758 59.4361C209.346 59.4361 208.948 59.2817 208.644 59.0035C208.339 58.7252 208.151 58.3433 208.115 57.9332C208.115 57.6885 208.179 57.4479 208.3 57.2353C206.989 56.9128 205.643 56.7527 204.292 56.7587C201.887 56.7587 199.636 57.183 197.839 58.0101C195.166 59.2399 193.461 61.2754 193.461 63.5076C193.461 67.2341 198.31 70.2719 204.292 70.2719C205.98 70.2701 207.658 70.0056 209.265 69.4879V64.676H203.802V63.6736H212.009V69.7769C209.437 70.9124 206.649 71.4818 203.836 71.4464C196.482 71.4464 190.519 67.886 190.519 63.4922C190.519 61.0725 192.314 58.8372 195.169 57.389C198.153 55.8762 200.984 55.7256 204.28 55.7533C206.392 55.7717 208.488 55.9285 209.515 56.2268V56.2421ZM184.377 64.5038L165.57 55.5872V70.7915H167.111V58.7265L184.377 66.9021V70.8161H185.919V55.8732H184.377V64.5038ZM159.742 55.8732V70.8038H157.276V55.8732H159.742ZM133.985 55.9347H145.316C147.903 55.9347 151.544 57.6657 151.772 60.2392C151.973 62.5053 149.028 64.6083 146.645 64.8912C148.146 65.4631 149.182 66.3794 149.774 67.6277C150.813 69.8261 151.818 72.0583 153.089 73.2359C154.911 74.9208 157.155 74.4443 159.483 73.5711C159.597 73.8109 159.711 74.0507 159.822 74.2905C157.387 75.7756 154.846 76.0923 152.318 75.0592C149.79 74.0261 148.504 70.9637 147.033 68.0612C146.253 66.5239 144.782 65.5677 142.985 64.925H139.803C139.017 64.8974 138.388 64.3439 138.388 63.6675C138.388 62.9911 139.054 62.4161 139.859 62.4161C140.663 62.4161 141.332 62.9788 141.332 63.6736C141.33 63.7775 141.316 63.8808 141.289 63.9811H144.887C146.713 63.9811 149.185 62.3731 149.164 60.5498C149.142 58.665 146.697 56.9309 144.81 56.9309H136.448V70.8131H133.982V55.9347H133.985ZM111.727 55.9347H123.055C125.645 55.9347 129.283 57.6657 129.511 60.2392C129.727 62.6713 126.308 64.925 123.857 64.925H117.545C116.759 64.8974 116.133 64.3439 116.133 63.6675C116.133 62.9911 116.79 62.4099 117.604 62.4099C118.418 62.4099 119.071 62.9726 119.071 63.6675C119.073 63.7716 119.058 63.8752 119.028 63.975H122.626C124.455 63.975 126.924 62.3669 126.906 60.5436C126.884 58.6588 124.439 56.9247 122.549 56.9247H114.188V70.8069H111.721V55.9347H111.727ZM102.101 64.5438C103.803 64.9466 104.999 65.8843 104.876 67.268C104.503 71.8954 92.053 69.6047 89.2195 68.836C89.2534 69.3218 89.2873 69.8138 89.3213 70.3027C92.5802 70.7485 95.8392 71.1328 99.1013 71.262C103.076 71.4188 106.06 70.3672 106.899 67.6769C107.824 64.7221 105.585 63.0649 102.391 62.4192C99.7672 61.8995 96.6902 62.1947 94.2421 61.6105C92.5371 61.2077 91.3963 60.9249 91.4518 59.7411C91.6367 56.2606 98.7868 56.691 103.532 57.4536C103.502 57.5607 103.487 57.6713 103.486 57.7825C103.509 58.1741 103.682 58.5418 103.969 58.8105C104.255 59.0791 104.634 59.2284 105.027 59.2277C105.217 59.2449 105.409 59.2236 105.591 59.165C105.772 59.1064 105.94 59.0118 106.084 58.8869C106.228 58.7619 106.345 58.6092 106.429 58.4379C106.512 58.2666 106.56 58.0803 106.569 57.8902C106.569 56.9216 105.234 56.5219 103.52 56.236C101.099 55.8301 97.9697 55.7779 97.2205 55.7502C93.2431 55.5934 89.8608 56.5496 89.4168 59.3383C89.0006 61.9395 90.7334 63.0987 93.9245 63.7321C96.5638 64.2394 99.6439 63.9534 102.092 64.5284L102.101 64.5438ZM43.8066 55.9347H55.1405C57.7274 55.9347 61.3656 57.6657 61.5968 60.2392C61.7972 62.5053 58.8527 64.6083 56.4694 64.8912C57.9709 65.4631 59.01 66.3794 59.5958 67.6277C60.6348 69.8261 61.64 72.0583 62.9134 73.2359C64.7355 74.9208 66.9801 74.4443 69.308 73.5711C69.4221 73.8109 69.5331 74.0507 69.6441 74.2905C67.2114 75.7756 64.6708 76.0923 62.1456 75.0592C59.6205 74.0261 58.3286 70.9637 56.8579 68.0612C56.0748 66.5239 54.6102 65.5677 52.8065 64.925H49.64C48.8569 64.8974 48.2248 64.3439 48.2248 63.6675C48.2248 62.9911 48.8847 62.4099 49.6986 62.4099C50.5126 62.4099 51.1693 62.9726 51.1693 63.6675C51.169 63.7715 51.1545 63.8749 51.1262 63.975H54.7243C56.5496 63.975 59.0192 62.3669 58.9977 60.5436C58.9792 58.6588 56.5311 56.9247 54.6472 56.9247H46.2732V70.8069H43.8066V55.9347ZM27.9372 55.9347H30.4038L40.6278 70.8038H38.1612L35.6237 67.1142H25.8807L26.3524 65.9766H34.8405L28.4582 56.7033L18.7615 70.8038H17.633L27.8601 55.9347H27.9372ZM67.0942 55.9347H69.5608V64.7067L83.6851 55.8486H86.0808L76.7571 61.6905C79.8866 62.0348 81.866 63.4338 82.7848 65.8013C83.8208 68.4978 84.8259 71.2343 86.0993 72.6794C87.9184 74.7456 89.7991 75.09 92.5463 73.6018C92.6542 73.9093 92.7683 74.1368 92.8824 74.432C90.3696 76.0154 87.7951 75.997 85.3285 74.9055C82.7725 73.774 81.5145 69.8845 80.0407 66.324C79.2144 64.3286 77.6296 63.1448 75.6872 62.3546L69.5916 66.1734H69.5608V70.7854H67.0942V55.9347Z" fill="#5F603A"/>
<path d="M92.7406 1.63266C92.9408 3.2753 93.378 4.88047 94.0386 6.39842C94.6615 7.821 95.551 9.11191 96.6593 10.2018C97.7592 11.2675 99.0568 12.1092 100.479 12.68C101.957 13.2715 103.517 13.6364 105.104 13.7623C104.963 12.0455 104.561 10.36 103.914 8.76285C103.313 7.27968 102.416 5.93352 101.278 4.80573C100.184 3.7386 98.871 2.91952 97.4301 2.40441C95.9238 1.87729 94.3369 1.61613 92.7406 1.63266ZM95.5155 11.3733C94.2579 10.1404 93.2481 8.67937 92.5401 7.0687C91.7936 5.34786 91.3063 3.5264 91.0941 1.66341H85.6337C85.8223 3.22467 86.2313 4.7515 86.8485 6.19857C87.4372 7.55864 88.2735 8.79816 89.3151 9.85437C90.4317 10.9626 91.7475 11.8513 93.1938 12.474C94.8663 13.1879 96.6304 13.666 98.4353 13.8945H99.1691C97.8224 13.2598 96.5892 12.4091 95.5185 11.3763L95.5155 11.3733ZM102.428 3.63428C103.357 4.54713 104.142 5.59397 104.759 6.73971C105.274 7.68889 105.688 8.6896 105.992 9.72523C106.298 8.69009 106.712 7.68952 107.226 6.73971C107.843 5.59464 108.629 4.54796 109.556 3.63428C110.884 2.35113 112.482 1.37951 114.234 0.790196C116.143 0.163115 118.153 -0.0987241 120.16 0.0184497H134.386C134.494 0.0176253 134.6 0.0382398 134.7 0.0790879C134.8 0.119936 134.89 0.180198 134.966 0.25635C135.043 0.332501 135.103 0.423015 135.143 0.522597C135.184 0.622178 135.204 0.72883 135.203 0.836316V0.928557C135.05 3.11423 134.522 5.25756 133.643 7.26548C132.853 9.03101 131.676 10.5975 130.199 11.8498C129.294 12.605 128.295 13.2396 127.227 13.7377C126.381 14.1322 125.503 14.4552 124.603 14.7031C125.503 14.9491 126.38 15.27 127.227 15.6624C128.295 16.1605 129.294 16.7951 130.199 17.5503C131.673 18.805 132.848 20.3723 133.637 22.1377C134.515 24.1448 135.043 26.287 135.197 28.4716C135.197 28.5331 135.197 28.5823 135.197 28.6499V28.6807C135.11 30.8178 134.673 32.9263 133.902 34.9223C133.22 36.695 132.169 38.3035 130.818 39.6419C129.495 40.9282 127.897 41.9003 126.144 42.486C124.239 43.1131 122.231 43.3749 120.228 43.2577H105.998C105.891 43.2583 105.785 43.2373 105.686 43.1961C105.587 43.155 105.497 43.0943 105.422 43.0179C105.345 42.9422 105.285 42.8522 105.244 42.7529C105.202 42.6537 105.181 42.5473 105.181 42.4399V42.3446C105.338 40.1588 105.868 38.0157 106.748 36.0076C107.538 34.243 108.714 32.6768 110.189 31.4233C110.982 30.7609 111.849 30.1914 112.772 29.7261C113.478 29.3694 114.211 29.0682 114.964 28.8252C114.088 28.5805 113.24 28.2456 112.433 27.8259C111.382 27.2771 110.416 26.5791 109.566 25.7536C108.637 24.8427 107.852 23.798 107.235 22.6543C106.721 21.7035 106.307 20.7019 106.002 19.6657C105.694 20.7014 105.281 21.7029 104.768 22.6543C104.152 23.7986 103.367 24.8435 102.437 25.7536C101.112 27.0399 99.5136 28.012 97.7601 28.5976C95.855 29.2232 93.8488 29.485 91.8464 29.3694H78.4374V42.4829C78.4443 42.5948 78.4282 42.7068 78.39 42.8122C78.3518 42.9175 78.2924 43.014 78.2154 43.0956C78.1384 43.1772 78.0455 43.2422 77.9424 43.2867C77.8393 43.3312 77.7281 43.3541 77.6158 43.3541C77.5034 43.3541 77.3922 43.3312 77.2891 43.2867C77.186 43.2422 77.0931 43.1772 77.0161 43.0956C76.9391 43.014 76.8797 42.9175 76.8415 42.8122C76.8034 42.7068 76.7872 42.5948 76.7941 42.4829V28.4562C76.9512 26.2761 77.482 24.139 78.3634 22.1377C79.1542 20.3717 80.3309 18.8044 81.8074 17.5503C82.7145 16.7942 83.7168 16.1595 84.7889 15.6624C85.6338 15.2695 86.5105 14.9486 87.4096 14.7031C86.5103 14.4557 85.6336 14.1327 84.7889 13.7377C83.719 13.2402 82.7188 12.6055 81.8136 11.8498C80.3365 10.5975 79.1597 9.03101 78.3696 7.26548C77.4861 5.25651 76.9563 3.11077 76.8033 0.922407V0.830167C76.8037 0.612446 76.8901 0.403641 77.0438 0.249051C77.1996 0.0968514 77.4085 0.0108732 77.6265 0.00922569H91.8495C93.8518 -0.106022 95.858 0.155789 97.7631 0.780972C99.5149 1.37028 101.113 2.34191 102.44 3.62506L102.428 3.63428ZM83.9873 1.65418H78.5238C78.7194 3.42152 79.1961 5.1465 79.9359 6.76431C80.6221 8.24244 81.6214 9.5547 82.865 10.6107C84.2066 11.7163 85.7619 12.5347 87.4343 13.0151C88.9981 13.4738 90.6102 13.7493 92.238 13.8361C91.6693 13.5717 91.1174 13.2729 90.5854 12.9414C89.6995 12.3901 88.8802 11.7391 88.1435 11.0012C86.958 9.79806 86.0075 8.38524 85.3408 6.83503C84.6408 5.18244 84.1848 3.43732 83.9873 1.65418ZM99.1598 15.521H98.426C96.6208 15.7456 94.8563 16.2228 93.1845 16.9384C91.739 17.5612 90.4234 18.4487 89.3058 19.555C88.2649 20.6117 87.4287 21.8511 86.8392 23.2108C86.2224 24.6591 85.8134 26.1869 85.6244 27.749H91.0879C91.2993 25.8869 91.7867 24.0663 92.534 22.3468C93.2414 20.7359 94.2513 19.2748 95.5093 18.0423C96.1868 17.3814 96.9342 16.7958 97.7385 16.2958C98.1982 16.0091 98.675 15.7504 99.166 15.521H99.1598ZM120.906 1.65418C120.692 3.52125 120.204 5.34673 119.457 7.07178C118.749 8.68244 117.739 10.1435 116.481 11.3763C115.809 12.0321 115.067 12.6125 114.268 13.1074C113.81 13.3954 113.336 13.6551 112.846 13.8853H113.583C115.388 13.656 117.152 13.1779 118.825 12.4648C120.269 11.8398 121.581 10.949 122.694 9.83899C123.736 8.78338 124.573 7.54371 125.161 6.18319C125.774 4.73532 126.181 3.2087 126.369 1.64803L120.906 1.65418ZM115.356 10.2018C116.463 9.11096 117.351 7.82024 117.974 6.39842C118.634 4.88047 119.072 3.2753 119.272 1.63266C117.681 1.61792 116.099 1.87905 114.598 2.40441C113.148 2.91635 111.827 3.73561 110.725 4.80573C109.587 5.93352 108.69 7.27968 108.089 8.76285C107.442 10.3603 107.04 12.0456 106.896 13.7623C108.483 13.6372 110.043 13.2722 111.521 12.68C112.943 12.1073 114.241 11.2658 115.344 10.2018H115.356ZM133.489 1.65418H128.013C127.815 3.43522 127.359 5.17823 126.659 6.82888C125.992 8.37909 125.042 9.79191 123.857 10.9951C123.122 11.7336 122.303 12.3847 121.418 12.9352C120.884 13.2683 120.331 13.5691 119.762 13.8361C121.389 13.7451 123 13.4665 124.563 13.0059C126.233 12.524 127.786 11.7057 129.126 10.6015C130.372 9.5491 131.374 8.24 132.064 6.76431C132.802 5.14888 133.278 3.42731 133.476 1.66341L133.489 1.65418ZM113.589 15.521H112.846C113.335 15.7513 113.81 16.01 114.268 16.2958C115.066 16.7921 115.809 17.3736 116.481 18.03C117.739 19.2625 118.749 20.7236 119.457 22.3345C120.204 24.0543 120.692 25.8747 120.906 27.7367H126.363C126.175 26.1747 125.767 24.6469 125.151 23.1985C124.564 21.8377 123.728 20.5979 122.685 19.5427C121.57 18.4365 120.256 17.549 118.812 16.9261C117.142 16.216 115.379 15.743 113.577 15.521H113.589ZM96.6717 19.2106C95.5608 20.2975 94.6672 21.5851 94.0386 23.0048C93.3788 24.523 92.9416 26.1281 92.7406 27.7706C94.3367 27.7855 95.9234 27.5244 97.4301 26.9988C98.8743 26.4849 100.19 25.6657 101.287 24.5975C102.425 23.4692 103.321 22.1231 103.923 20.6404C104.57 19.0431 104.972 17.3577 105.114 15.6409C103.526 15.7675 101.967 16.1324 100.489 16.7232C99.0631 17.2923 97.7624 18.133 96.6593 19.1983L96.6717 19.2106ZM78.5238 27.749H83.9903C84.1861 25.9669 84.641 24.2227 85.3408 22.5713C86.4128 20.0451 88.2441 17.9127 90.5823 16.468C91.1143 16.1364 91.6662 15.8376 92.2349 15.5733C90.607 15.6586 88.9947 15.9341 87.4312 16.3942C85.7599 16.8773 84.2051 17.6954 82.8619 18.7986C81.6175 19.8551 80.6181 21.1686 79.9328 22.6481C79.1932 24.2628 78.7165 25.9847 78.5207 27.749H78.5238ZM119.259 27.7706C119.058 26.1281 118.621 24.523 117.961 23.0048C117.338 21.5826 116.449 20.291 115.344 19.1983C114.241 18.1411 112.944 17.306 111.524 16.7386C110.045 16.1477 108.486 15.7828 106.899 15.6563C107.043 17.373 107.445 19.0583 108.092 20.6557C108.691 22.1317 109.583 23.4723 110.713 24.5975C111.814 25.6676 113.136 26.4869 114.585 26.9988C116.087 27.5227 117.668 27.7837 119.259 27.7706ZM128.013 27.749H133.476C133.279 25.985 132.802 24.2633 132.064 22.6481C131.379 21.1686 130.379 19.8551 129.135 18.7986C127.791 17.6956 126.235 16.8775 124.563 16.3942C122.997 15.9352 121.383 15.6597 119.753 15.5733C120.322 15.8383 120.875 16.1371 121.408 16.468C122.294 17.0175 123.112 17.6675 123.847 18.4051C125.031 19.6093 125.982 21.0219 126.65 22.5713C127.353 24.2225 127.812 25.9665 128.013 27.749ZM119.478 41.6343C119.691 39.7721 120.179 37.9516 120.927 36.2321C121.633 34.6208 122.642 33.1594 123.9 31.9275C124.57 31.2682 125.309 30.6827 126.104 30.1811C126.566 29.8965 127.042 29.6368 127.532 29.4032H126.798C124.993 29.6321 123.229 30.1102 121.556 30.8237C120.111 31.4462 118.796 32.3349 117.681 33.4433C116.636 34.4965 115.799 35.7368 115.214 37.0992C114.598 38.5464 114.19 40.0732 114.003 41.6343H119.478ZM125.028 33.0867C123.925 34.1804 123.041 35.4732 122.423 36.8962C121.762 38.4139 121.324 40.0192 121.125 41.662C122.715 41.678 124.295 41.4179 125.796 40.8933C127.247 40.3819 128.569 39.5626 129.672 38.492C130.809 37.3648 131.705 36.0185 132.305 34.5349C132.955 32.932 133.36 31.2403 133.504 29.517C131.917 29.6439 130.357 30.0088 128.879 30.5993C127.45 31.1718 126.146 32.0167 125.04 33.0867H125.028ZM106.899 41.6343H112.359C112.554 39.8514 113.011 38.1068 113.716 36.4565C114.789 33.9319 116.62 31.8007 118.957 30.3564C119.489 30.0248 120.041 29.726 120.61 29.4616C118.982 29.5465 117.37 29.821 115.806 30.2795C114.136 30.7638 112.583 31.5819 111.24 32.6839C109.995 33.7409 108.995 35.0542 108.308 36.5334C107.571 38.1481 107.099 39.8703 106.911 41.6343H106.899Z" fill="#5F603A"/>
<path d="M68.4663 85.6207C67.7815 86.3197 67.4014 87.2602 67.4087 88.2373C67.4089 88.7213 67.5055 89.2005 67.6928 89.6471C67.8802 90.0936 68.1546 90.4986 68.5002 90.8385C68.8469 91.1782 69.2574 91.4465 69.7081 91.628C70.1588 91.8095 70.641 91.9006 71.1271 91.8962C71.5633 91.8963 71.9958 91.8171 72.4035 91.6625C72.7981 91.5194 73.166 91.3115 73.4919 91.0476V89.5686H71.0253V88.7292H74.3398V91.4165L74.309 91.4503C73.78 91.9758 73.1295 92.3633 72.4148 92.5786C71.7001 92.7939 70.9433 92.8305 70.2111 92.685C69.4789 92.5396 68.7939 92.2166 68.2165 91.7446C67.6391 91.2726 67.1871 90.6662 66.9004 89.9787C66.6137 89.2913 66.5011 88.544 66.5726 87.8029C66.6441 87.0618 66.8975 86.3497 67.3104 85.7293C67.7232 85.109 68.2829 84.5996 68.9399 84.246C69.597 83.8925 70.3312 83.7057 71.0778 83.7021C71.6883 83.7001 72.2935 83.816 72.8599 84.0434C73.4173 84.2712 73.9228 84.609 74.346 85.0366L74.4231 85.1134L73.828 85.7099L73.7478 85.63C73.4067 85.2798 72.9961 85.0044 72.5423 84.8213C72.0768 84.6351 71.5793 84.5411 71.0778 84.5446C70.5934 84.5458 70.1141 84.6426 69.6675 84.8294C69.2209 85.0162 68.8158 85.2893 68.4755 85.633L68.4663 85.6207ZM82.717 92.6556L82.0541 92.3482L86.1979 83.5084C87.5772 86.4601 88.9574 89.4067 90.3387 92.3482L89.5741 92.7048L88.0972 89.5563H84.2894L82.8187 92.7048L82.717 92.6556ZM84.681 88.717H87.6995L86.1856 85.4762L84.681 88.717ZM98.4137 83.9174H100.513C101.668 83.9142 102.777 84.3675 103.597 85.178C103.997 85.5777 104.315 86.0523 104.532 86.5745C104.749 87.0968 104.861 87.6566 104.861 88.2219C104.861 88.7872 104.749 89.347 104.532 89.8693C104.315 90.3916 103.997 90.8661 103.597 91.2659C103.191 91.6686 102.71 91.9875 102.181 92.2044C101.652 92.4212 101.085 92.5317 100.513 92.5296H98.3058V83.9204L98.4137 83.9174ZM102.98 85.7837C102.323 85.137 101.436 84.7756 100.513 84.7783H99.1475V91.7055H100.513C101.201 91.7043 101.872 91.5003 102.444 91.1192C103.015 90.7381 103.461 90.197 103.725 89.5639C103.988 88.9308 104.058 88.2341 103.926 87.5615C103.793 86.8888 103.464 86.2703 102.98 85.7837ZM113.771 84.0465V92.5449H112.926V83.9358H113.771V84.0465ZM122.589 92.4373V83.4531L128.679 90.7032V83.9389H129.52V93.0215L123.431 85.7837V92.548H122.586V92.4404L122.589 92.4373ZM139.495 85.6361C138.989 86.1556 138.647 86.812 138.513 87.5236C138.379 88.2353 138.457 88.9706 138.739 89.638C139.021 90.3054 139.493 90.8754 140.097 91.2769C140.701 91.6785 141.411 91.8938 142.137 91.8962C142.575 91.8957 143.01 91.8166 143.42 91.6625C143.812 91.5193 144.178 91.3115 144.502 91.0476V89.5686H142.035V88.7292H145.35V91.4165L145.319 91.4503C144.902 91.863 144.408 92.1891 143.864 92.4096C143.244 92.6705 142.574 92.7909 141.901 92.7621C141.229 92.7333 140.572 92.5561 139.977 92.2432C139.382 91.9303 138.864 91.4895 138.46 90.9527C138.057 90.4159 137.778 89.7964 137.643 89.139C137.509 88.4816 137.523 87.8027 137.683 87.1512C137.844 86.4997 138.148 85.892 138.573 85.3718C138.998 84.8517 139.533 84.4321 140.141 84.1433C140.748 83.8546 141.412 83.7039 142.085 83.7021C142.696 83.6995 143.303 83.8154 143.87 84.0434C144.427 84.2719 144.932 84.6096 145.356 85.0366L145.43 85.1134L144.838 85.7099L144.758 85.63C144.417 85.2798 144.006 85.0044 143.552 84.8213C143.086 84.6348 142.587 84.5408 142.085 84.5446C141.601 84.5457 141.123 84.6425 140.677 84.8294C140.232 85.0162 139.828 85.2894 139.489 85.633L139.495 85.6361Z" fill="#5F603A"/>
</g>
<defs>
<clipPath id="clip0_4_18">
<rect width="212" height="93" fill="white"/>
</clipPath>
</defs>
</svg>
