<?xml version="1.0" encoding="UTF-8"?>
<svg id="Layer_2" xmlns="http://www.w3.org/2000/svg" viewBox="0 0 197.82 86.08">
  <defs>
    <style>
      .cls-1 {
        fill: #304923;
      }
    </style>
  </defs>
  <g id="Layer_1-2" data-name="Layer_1">
    <g>
      <g>
        <path class="cls-1" d="M0,68.88v-14.98c0-1.29,1.05-2.33,2.34-2.33h5.55c4.15,0,6.93,2.5,6.93,6.36s-2.78,6.26-6.93,6.26H3.25v2.37c0,1.29-1.05,2.33-2.34,2.33h-.9ZM3.25,61.74h4.18c2.53,0,4.24-1.53,4.24-3.91s-1.71-3.81-4.24-3.81H3.25v7.72Z"/>
        <path class="cls-1" d="M17.86,68.88l7.7-15.99c.39-.81,1.21-1.32,2.11-1.32h1.85l8.31,17.31h-1.83c-.9,0-1.72-.51-2.11-1.32l-1.73-3.58h-8.64l-1.73,3.58c-.39.81-1.21,1.32-2.11,1.32h-1.83ZM31.03,61.61l-3.19-6.6-3.19,6.6h6.38Z"/>
        <path class="cls-1" d="M43.9,53.91c0-1.29,1.05-2.33,2.34-2.33h5.55c4.15,0,6.93,2.5,6.93,6.36,0,2.37-1.13,4.25-3.03,5.29l3.49,5.66h-2.16c-.81,0-1.57-.42-1.99-1.11l-2.29-3.71c-.36.07-.72.1-1.13.1h-4.48v2.39c0,1.29-1.05,2.33-2.34,2.33h-.9v-14.98ZM47.14,61.74h4.18c2.56,0,4.24-1.53,4.24-3.91s-1.68-3.81-4.24-3.81h-4.18v7.72Z"/>
        <path class="cls-1" d="M65.26,68.88v-14.98c0-1.29,1.05-2.33,2.34-2.33h.9v8.78l8.14-8.1c.44-.44,1.03-.68,1.65-.68h3.16l-7.95,7.77,7.92,9.55h-2.71c-.71,0-1.37-.32-1.82-.86l-5.43-6.68-2.97,2.89v2.32c0,1.29-1.05,2.33-2.34,2.33h-.9Z"/>
        <path class="cls-1" d="M93.41,54.17c-.05,0-.34-.02-.6-.02-2.06,0-3.36.73-3.44,1.85-.13,1.52,2.11,2.41,4.69,3.14,3.75,1.08,6.33,2.34,6.23,5.34-.13,3.33-3.44,4.4-6.7,4.4s-5.81-.91-7.92-2.23l.36-.5c.63-.88,1.79-1.22,2.8-.8,1.47.6,3.09.86,4.71.86,2.21,0,3.46-.66,3.62-1.73.21-1.57-2.14-2.46-4.53-3.14-4.04-1.15-6.62-2.51-6.49-5.39.16-3.23,3.52-4.4,6.67-4.38,2.66.02,5.05.89,6.85,2.01l-.26.39c-.61.92-1.77,1.29-2.8.89-.87-.33-1.94-.6-3.19-.7Z"/>
        <path class="cls-1" d="M106.36,68.88v-14.98c0-1.29,1.05-2.33,2.34-2.33h5.55c4.15,0,6.93,2.5,6.93,6.36s-2.78,6.26-6.93,6.26h-4.65v2.37c0,1.29-1.05,2.33-2.34,2.33h-.9ZM109.6,61.74h4.18c2.53,0,4.24-1.53,4.24-3.91s-1.71-3.81-4.24-3.81h-4.18v7.72Z"/>
        <path class="cls-1" d="M127.25,53.91c0-1.29,1.05-2.33,2.34-2.33h5.55c4.15,0,6.93,2.5,6.93,6.36,0,2.37-1.13,4.25-3.03,5.29l3.49,5.66h-2.16c-.81,0-1.57-.42-1.99-1.11l-2.29-3.71c-.36.07-.72.1-1.13.1h-4.48v2.39c0,1.29-1.05,2.33-2.34,2.33h-.9v-14.98ZM130.49,61.74h4.18c2.56,0,4.24-1.53,4.24-3.91s-1.68-3.81-4.24-3.81h-4.18v7.72Z"/>
        <path class="cls-1" d="M150.95,51.57h.9v14.98c0,1.29-1.05,2.33-2.34,2.33h-.9v-14.98c0-1.29,1.05-2.33,2.34-2.33Z"/>
        <path class="cls-1" d="M160.26,51.57h.9l10.01,12.51v-10.18c0-1.29,1.05-2.33,2.34-2.33h.9v14.98c0,1.29-1.05,2.33-2.34,2.33h-.9l-10.01-12.51v10.18c0,1.29-1.05,2.33-2.34,2.33h-.9v-14.98c0-1.29,1.05-2.33,2.34-2.33Z"/>
        <path class="cls-1" d="M190.31,51.57c3.12,0,5.69,1.02,7.38,2.76l-.97.73c-.75.56-1.75.61-2.57.15-1.08-.6-2.44-.93-3.91-.93-3.99,0-6.59,2.4-6.59,5.94s2.59,5.99,6.8,5.99c1.69,0,3.15-.43,4.26-1.19v-2.45c0-1.29,1.05-2.33,2.34-2.33h.78v6.02h-.03c-1.69,1.66-4.26,2.62-7.35,2.62-5.95,0-9.94-3.52-9.94-8.66s3.99-8.66,9.81-8.66Z"/>
      </g>
      <g>
        <path class="cls-1" d="M68.18,85.52c-.72-.37-1.29-.89-1.71-1.56-.42-.67-.63-1.42-.63-2.25,0-.62.12-1.21.37-1.76s.59-1.02,1.04-1.43c.45-.4.96-.7,1.54-.89.43-.18.94-.27,1.52-.27s1.16.08,1.69.24c.53.16.98.38,1.36.67l-.97.89c-.82-.91-1.63-1.39-2.45-1.43-.4,0-.75.06-1.06.17-.55.18-.95.52-1.22,1.02s-.4,1.12-.4,1.84c0,.87.16,1.68.48,2.42.32.74.77,1.33,1.36,1.76.59.44,1.26.66,2.03.66.52,0,.98-.12,1.4-.35v-3.42h1.4v2.73c-.4.5-.89.88-1.46,1.14-.57.25-1.19.38-1.88.38-.89,0-1.7-.19-2.42-.56Z"/>
        <path class="cls-1" d="M79.09,85.96c.14-.24.28-.5.4-.76.12-.27.28-.64.45-1.12l2.48-6.61h1.1l3.09,8.49h-1.53l-1.19-3.26h-3.17l-.52,1.39c-.18.49-.3.87-.35,1.14-.06.27-.08.52-.06.74h-.71ZM82.36,78.41l-1.53,4.02h2.97l-1.44-4.02Z"/>
        <path class="cls-1" d="M92,85.96v-8.49h2.54c.96,0,1.79.18,2.49.55.7.37,1.24.87,1.62,1.5.37.64.56,1.35.56,2.15s-.19,1.55-.57,2.2c-.38.65-.94,1.16-1.7,1.53-.75.37-1.68.56-2.77.56h-2.18ZM94.24,85.69c1.21,0,2.1-.33,2.67-.97.58-.64.86-1.52.86-2.66,0-.82-.16-1.56-.48-2.21-.32-.65-.77-1.16-1.35-1.53-.58-.37-1.25-.56-2.02-.56h-.51v7.93h.81Z"/>
        <path class="cls-1" d="M106.01,85.96h-1.43v-8.49h1.44v8.49Z"/>
        <path class="cls-1" d="M111.92,85.96c.07-.24.12-.48.15-.71s.05-.5.05-.82v-6.96h.9l5.03,6.24v-4.7c0-.32-.02-.59-.05-.82-.03-.23-.08-.47-.15-.72h.66c-.06.25-.11.49-.13.72-.03.23-.04.5-.04.82v6.95h-.28l-5.67-7v5.48c0,.32.02.59.05.82s.08.46.15.71h-.66Z"/>
        <path class="cls-1" d="M126.22,85.52c-.72-.37-1.29-.89-1.71-1.56-.42-.67-.63-1.42-.63-2.25,0-.62.12-1.21.37-1.76.25-.55.59-1.02,1.04-1.43.45-.4.96-.7,1.54-.89.43-.18.94-.27,1.52-.27s1.16.08,1.69.24c.53.16.98.38,1.36.67l-.97.89c-.82-.91-1.63-1.39-2.45-1.43-.4,0-.75.06-1.06.17-.55.18-.95.52-1.22,1.02s-.4,1.12-.4,1.84c0,.87.16,1.68.48,2.42.32.74.77,1.33,1.36,1.76.59.44,1.26.66,2.03.66.52,0,.98-.12,1.4-.35v-3.42h1.4v2.73c-.4.5-.89.88-1.46,1.14-.57.25-1.19.38-1.88.38-.89,0-1.7-.19-2.42-.56Z"/>
      </g>
      <path class="cls-1" d="M127.95,21.28c-.91-.9-1.91-1.71-2.99-2.4l-.16-.1-.17.09c-.82.42-1.66.79-2.49,1.09l-.65.23.59.36c4.05,2.44,6.5,6.66,6.61,11.34h-13.74c-5.15,0-9.83-2.82-12.2-7.36-1.01-1.92-1.53-4-1.54-6.18v-2.09c.01-7.51,6.18-13.62,13.74-13.62h13.74c-.18,7.37-6.27,13.31-13.74,13.31h-7.49c-1.28,0-2.31,1.03-2.31,2.3v.33h9.8c10.13,0,18.37-8.18,18.37-18.23v-.33h-18.37c-6.71,0-12.81,3.58-16.05,9.37-.52-.92-1.12-1.8-1.79-2.62-.39-.48-.82-.95-1.28-1.41C92.37,1.9,87.76,0,82.85,0h-18.37v.33c0,4.87,1.91,9.45,5.38,12.89.91.9,1.91,1.71,2.99,2.4l.16.1.17-.09c.8-.42,1.64-.78,2.48-1.09l.65-.23-.59-.36c-4.05-2.44-6.5-6.66-6.61-11.34h13.73c5.15,0,9.83,2.82,12.2,7.36,1.02,1.95,1.54,4.07,1.54,6.28v1.97s0,.11,0,.11c-.06,7.47-6.2,13.53-13.74,13.53h-13.74c.18-7.37,6.27-13.31,13.74-13.31h7.49c1.28,0,2.31-1.03,2.31-2.3v-.33h-9.8c-10.13,0-18.37,8.18-18.37,18.23v.33h18.37c6.71,0,12.81-3.58,16.05-9.38.52.93,1.12,1.81,1.79,2.63.39.47.82.95,1.28,1.41,3.47,3.44,8.08,5.34,12.99,5.34h18.37v-.33c0-4.87-1.91-9.45-5.38-12.89Z"/>
    </g>
  </g>
</svg>